<?xml version="1.0" encoding="UTF-8"?>
<svg version="1.1" xmlns="http://www.w3.org/2000/svg" width="500" height="500">
<path d="M0 0 C36.96 0 73.92 0 112 0 C112.495 1.485 112.495 1.485 113 3 C117.62 3 122.24 3 127 3 C127 3.66 127 4.32 127 5 C129.64 5 132.28 5 135 5 C135 5.66 135 6.32 135 7 C137.97 7 140.94 7 144 7 C144 7.66 144 8.32 144 9 C145.98 9 147.96 9 150 9 C150 9.66 150 10.32 150 11 C151.98 11 153.96 11 156 11 C156 11.66 156 12.32 156 13 C157.32 13 158.64 13 160 13 C160 13.66 160 14.32 160 15 C161.98 15 163.96 15 166 15 C166 15.66 166 16.32 166 17 C167.65 17 169.3 17 171 17 C171 17.66 171 18.32 171 19 C171.99 19 172.98 19 174 19 C174 19.66 174 20.32 174 21 C175.175625 21.2165625 175.175625 21.2165625 176.375 21.4375 C179 22 179 22 181 23 C181 23.66 181 24.32 181 25 C182.175625 25.2165625 182.175625 25.2165625 183.375 25.4375 C186 26 186 26 188 27 C188 27.66 188 28.32 188 29 C189.32 29 190.64 29 192 29 C192 29.66 192 30.32 192 31 C193.98 31.66 195.96 32.32 198 33 C198 33.66 198 34.32 198 35 C198.66 35 199.32 35 200 35 C200 35.66 200 36.32 200 37 C200.5775 37.103125 201.155 37.20625 201.75 37.3125 C204.35661158 38.10896465 205.9735311 39.19065277 208 41 C208 41.66 208 42.32 208 43 C208.66 43 209.32 43 210 43 C210 43.66 210 44.32 210 45 C210.66 45 211.32 45 212 45 C212 45.99 212 46.98 212 48 C212.66 48 213.32 48 214 48 C214 48.66 214 49.32 214 50 C214.66 50 215.32 50 216 50 C216 50.66 216 51.32 216 52 C216.66 52 217.32 52 218 52 C218 52.66 218 53.32 218 54 C218.66 54 219.32 54 220 54 C220 54.66 220 55.32 220 56 C220.66 56 221.32 56 222 56 C222 56.66 222 57.32 222 58 C222.66 58 223.32 58 224 58 C224 58.99 224 59.98 224 61 C224.66 61 225.32 61 226 61 C226 61.66 226 62.32 226 63 C226.99 63 227.98 63 229 63 C229 63.66 229 64.32 229 65 C229.66 65 230.32 65 231 65 C231 65.66 231 66.32 231 67 C231.66 67 232.32 67 233 67 C233 68.32 233 69.64 233 71 C233.66 71 234.32 71 235 71 C235 71.66 235 72.32 235 73 C235.66 73 236.32 73 237 73 C239 76 239 76 239 79 C239.66 79 240.32 79 241 79 C241 79.66 241 80.32 241 81 C241.66 81 242.32 81 243 81 C243 82.32 243 83.64 243 85 C243.66 85 244.32 85 245 85 C245 86.32 245 87.64 245 89 C245.66 89 246.32 89 247 89 C247 90.65 247 92.3 247 94 C247.66 94 248.32 94 249 94 C249 94.66 249 95.32 249 96 C249.99 96 250.98 96 252 96 C252 97.98 252 99.96 252 102 C252.66 102 253.32 102 254 102 C254 103.32 254 104.64 254 106 C254.66 106 255.32 106 256 106 C256 107.32 256 108.64 256 110 C256.66 110 257.32 110 258 110 C259.60355101 113.50776784 260.22036864 116.14354879 260 120 C260.66 120 261.32 120 262 120 C262 122.64 262 125.28 262 128 C262.66 128 263.32 128 264 128 C266.1583195 134.07027358 266.20852314 139.59370576 266 146 C266.66 146 267.32 146 268 146 C268.06058594 146.84304687 268.12117188 147.68609375 268.18359375 148.5546875 C268.30927734 150.19824219 268.30927734 150.19824219 268.4375 151.875 C268.51871094 152.96554688 268.59992188 154.05609375 268.68359375 155.1796875 C268.83001703 157.94728971 268.83001703 157.94728971 270 160 C270.08977728 161.51164392 270.11757433 163.02720179 270.11352539 164.54150391 C270.11344986 165.48232819 270.11337433 166.42315247 270.11329651 167.39248657 C270.10813522 168.41023163 270.10297394 169.42797668 270.09765625 170.4765625 C270.09553383 172.03713882 270.09553383 172.03713882 270.09336853 173.62924194 C270.08775866 176.96119021 270.07520447 180.29307195 270.0625 183.625 C270.05748627 185.88020736 270.05292314 188.13541578 270.04882812 190.390625 C270.03778603 195.92710614 270.02103827 201.46354832 270 207 C269.34 207 268.68 207 268 207 C268 210.96 268 214.92 268 219 C267.34 219 266.68 219 266 219 C266 222.3 266 225.6 266 229 C265.34 229 264.68 229 264 229 C264 230.98 264 232.96 264 235 C263.34 235 262.68 235 262 235 C262 237.97 262 240.94 262 244 C261.34 244 260.68 244 260 244 C260 245.32 260 246.64 260 248 C259.34 248 258.68 248 258 248 C258.061875 249.051875 258.061875 249.051875 258.125 250.125 C257.98331668 253.38371628 257.13265314 255.9559947 256 259 C255.34 259 254.68 259 254 259 C254 260.32 254 261.64 254 263 C253.34 263 252.68 263 252 263 C252 264.32 252 265.64 252 267 C251.01 267 250.02 267 249 267 C249 268.32 249 269.64 249 271 C248.34 271 247.68 271 247 271 C247 272.32 247 273.64 247 275 C246.34 275 245.68 275 245 275 C245 275.66 245 276.32 245 277 C244.34 277 243.68 277 243 277 C243 278.32 243 279.64 243 281 C242.34 281 241.68 281 241 281 C241 281.66 241 282.32 241 283 C240.34 283 239.68 283 239 283 C239 284.65 239 286.3 239 288 C238.34 288 237.68 288 237 288 C237 288.66 237 289.32 237 290 C236.34 290 235.68 290 235 290 C235 291.32 235 292.64 235 294 C234.34 294 233.68 294 233 294 C233 294.66 233 295.32 233 296 C232.34 296 231.68 296 231 296 C231 296.66 231 297.32 231 298 C230.34 298 229.68 298 229 298 C229 298.66 229 299.32 229 300 C228.01 300 227.02 300 226 300 C226 301.32 226 302.64 226 304 C225.34 304 224.68 304 224 304 C224 304.66 224 305.32 224 306 C223.34 306 222.68 306 222 306 C222 306.66 222 307.32 222 308 C221.34 308 220.68 308 220 308 C220 308.66 220 309.32 220 310 C219.34 310 218.68 310 218 310 C218 310.66 218 311.32 218 312 C217.34 312 216.68 312 216 312 C216 312.66 216 313.32 216 314 C215.34 314 214.68 314 214 314 C214 314.66 214 315.32 214 316 C213.34 316 212.68 316 212 316 C212 316.66 212 317.32 212 318 C211.34 318 210.68 318 210 318 C210 318.66 210 319.32 210 320 C209.34 320 208.68 320 208 320 C208 320.66 208 321.32 208 322 C207.34 322 206.68 322 206 322 C206 322.66 206 323.32 206 324 C205.34 324 204.68 324 204 324 C204 324.66 204 325.32 204 326 C203.34 326 202.68 326 202 326 C202 326.66 202 327.32 202 328 C201.34 328 200.68 328 200 328 C200 328.66 200 329.32 200 330 C198.68 330 197.36 330 196 330 C196 331.32 196 332.64 196 334 C193.6640625 336.140625 193.6640625 336.140625 190.625 338.25 C189.12839844 339.30960937 189.12839844 339.30960937 187.6015625 340.390625 C185 342 185 342 183 342 C183 342.66 183 343.32 183 344 C183.99 344 184.98 344 186 344 C186 344.66 186 345.32 186 346 C186.66 346 187.32 346 188 346 C188 346.66 188 347.32 188 348 C188.66 348 189.32 348 190 348 C190 348.66 190 349.32 190 350 C190.66 350 191.32 350 192 350 C192 350.66 192 351.32 192 352 C192.66 352 193.32 352 194 352 C194 352.66 194 353.32 194 354 C194.66 354 195.32 354 196 354 C196 354.66 196 355.32 196 356 C196.66 356 197.32 356 198 356 C198 356.66 198 357.32 198 358 C198.66 358 199.32 358 200 358 C200 358.66 200 359.32 200 360 C201.32 360.66 202.64 361.32 204 362 C204 362.99 204 363.98 204 365 C205.32 365 206.64 365 208 365 C208 365.66 208 366.32 208 367 C208.66 367 209.32 367 210 367 C210 367.66 210 368.32 210 369 C210.66 369 211.32 369 212 369 C212 369.66 212 370.32 212 371 C212.66 371 213.32 371 214 371 C214 371.66 214 372.32 214 373 C214.66 373 215.32 373 216 373 C216 373.66 216 374.32 216 375 C216.66 375 217.32 375 218 375 C218 375.66 218 376.32 218 377 C218.66 377 219.32 377 220 377 C220 377.66 220 378.32 220 379 C220.66 379 221.32 379 222 379 C222 379.66 222 380.32 222 381 C222.66 381 223.32 381 224 381 C224 381.66 224 382.32 224 383 C224.66 383 225.32 383 226 383 C226 383.66 226 384.32 226 385 C226.99 385 227.98 385 229 385 C229 385.66 229 386.32 229 387 C229.66 387 230.32 387 231 387 C231 387.66 231 388.32 231 389 C231.66 389 232.32 389 233 389 C233 389.66 233 390.32 233 391 C233.66 391 234.32 391 235 391 C235 391.66 235 392.32 235 393 C235.66 393 236.32 393 237 393 C237 393.99 237 394.98 237 396 C237.66 396 238.32 396 239 396 C239 396.66 239 397.32 239 398 C239.61875 398.144375 240.2375 398.28875 240.875 398.4375 C243 399 243 399 245 400 C245 400.66 245 401.32 245 402 C245.66 402 246.32 402 247 402 C247 402.66 247 403.32 247 404 C247.66 404 248.32 404 249 404 C249 404.66 249 405.32 249 406 C249.99 406 250.98 406 252 406 C252 406.66 252 407.32 252 408 C252.66 408 253.32 408 254 408 C254 408.99 254 409.98 254 411 C254.66 411 255.32 411 256 411 C256 411.66 256 412.32 256 413 C256.66 413 257.32 413 258 413 C258 413.66 258 414.32 258 415 C258.66 415 259.32 415 260 415 C260 415.66 260 416.32 260 417 C260.66 417 261.32 417 262 417 C262 417.66 262 418.32 262 419 C262.66 419 263.32 419 264 419 C264 419.66 264 420.32 264 421 C264.66 421 265.32 421 266 421 C266 421.66 266 422.32 266 423 C266.66 423 267.32 423 268 423 C268 423.66 268 424.32 268 425 C268.66 425 269.32 425 270 425 C270 425.66 270 426.32 270 427 C270.66 427 271.32 427 272 427 C272 427.66 272 428.32 272 429 C272.99 429 273.98 429 275 429 C275 429.66 275 430.32 275 431 C276.32 431.33 277.64 431.66 279 432 C279 432.99 279 433.98 279 435 C280.32 435 281.64 435 283 435 C285.25 436.875 285.25 436.875 287 439 C287 439.66 287 440.32 287 441 C287.66 441 288.32 441 289 441 C289 441.66 289 442.32 289 443 C289.66 443 290.32 443 291 443 C291 443.66 291 444.32 291 445 C291.66 445 292.32 445 293 445 C293 445.66 293 446.32 293 447 C293.66 447 294.32 447 295 447 C295 447.66 295 448.32 295 449 C295.66 449 296.32 449 297 449 C297 449.66 297 450.32 297 451 C297.66 451 298.32 451 299 451 C299 451.66 299 452.32 299 453 C299.66 453 300.32 453 301 453 C301 453.99 301 454.98 301 456 C301.66 456 302.32 456 303 456 C303 456.66 303 457.32 303 458 C303.66 458 304.32 458 305 458 C305 458.66 305 459.32 305 460 C305.66 460 306.32 460 307 460 C307 461.32 307 462.64 307 464 C307.66 464 308.32 464 309 464 C309 467.3 309 470.6 309 474 C308.34 474 307.68 474 307 474 C307 474.66 307 475.32 307 476 C306.34 476 305.68 476 305 476 C305 476.66 305 477.32 305 478 C303.02 478 301.04 478 299 478 C299 478.66 299 479.32 299 480 C211.88 480 124.76 480 35 480 C35 479.34 35 478.68 35 478 C30.43726776 478.1390777 25.87488309 478.28743634 21.3125 478.4375 C20.01892578 478.47681641 18.72535156 478.51613281 17.39257812 478.55664062 C16.14541016 478.59853516 14.89824219 478.64042969 13.61328125 478.68359375 C12.46641846 478.72025146 11.31955566 478.75690918 10.13793945 478.79467773 C6.66590727 478.95270193 6.66590727 478.95270193 2 480 C2 341.73 2 203.46 2 61 C1.34 61 0.68 61 0 61 C0 40.87 0 20.74 0 0 Z " fill="#050D0D" transform="translate(92,10)"/>
<path d="M0 0 C2.64 0.33 5.28 0.66 8 1 C8 1.66 8 2.32 8 3 C8.66 3 9.32 3 10 3 C10 3.66 10 4.32 10 5 C10.66 5 11.32 5 12 5 C12 5.66 12 6.32 12 7 C12.66 7 13.32 7 14 7 C14 7.66 14 8.32 14 9 C14.66 9 15.32 9 16 9 C16 9.66 16 10.32 16 11 C16.66 11 17.32 11 18 11 C18 11.66 18 12.32 18 13 C18.66 13 19.32 13 20 13 C20 13.66 20 14.32 20 15 C20.66 15 21.32 15 22 15 C22 15.66 22 16.32 22 17 C23.98 17.99 23.98 17.99 26 19 C26 19.99 26 20.98 26 22 C27.32 22 28.64 22 30 22 C30 22.66 30 23.32 30 24 C30.66 24 31.32 24 32 24 C32 24.66 32 25.32 32 26 C32.66 26 33.32 26 34 26 C34 26.66 34 27.32 34 28 C34.66 28 35.32 28 36 28 C36 28.66 36 29.32 36 30 C36.66 30 37.32 30 38 30 C38 30.66 38 31.32 38 32 C38.66 32 39.32 32 40 32 C40 32.66 40 33.32 40 34 C40.66 34 41.32 34 42 34 C42 34.66 42 35.32 42 36 C42.66 36 43.32 36 44 36 C44 36.66 44 37.32 44 38 C44.66 38 45.32 38 46 38 C46 38.66 46 39.32 46 40 C46.66 40 47.32 40 48 40 C48 40.66 48 41.32 48 42 C48.99 42 49.98 42 51 42 C51 42.66 51 43.32 51 44 C51.66 44 52.32 44 53 44 C53 44.66 53 45.32 53 46 C53.66 46 54.32 46 55 46 C55 46.66 55 47.32 55 48 C55.66 48 56.32 48 57 48 C57 48.66 57 49.32 57 50 C57.66 50 58.32 50 59 50 C59 50.99 59 51.98 59 53 C59.66 53 60.32 53 61 53 C61 53.66 61 54.32 61 55 C61.61875 55.144375 62.2375 55.28875 62.875 55.4375 C65 56 65 56 67 57 C67 57.66 67 58.32 67 59 C67.66 59 68.32 59 69 59 C69 59.66 69 60.32 69 61 C69.66 61 70.32 61 71 61 C71 61.66 71 62.32 71 63 C71.99 63 72.98 63 74 63 C74 63.66 74 64.32 74 65 C74.66 65 75.32 65 76 65 C76 65.99 76 66.98 76 68 C76.66 68 77.32 68 78 68 C78 68.66 78 69.32 78 70 C78.66 70 79.32 70 80 70 C80 70.66 80 71.32 80 72 C80.66 72 81.32 72 82 72 C82 72.66 82 73.32 82 74 C82.66 74 83.32 74 84 74 C84 74.66 84 75.32 84 76 C84.66 76 85.32 76 86 76 C86 76.66 86 77.32 86 78 C86.66 78 87.32 78 88 78 C88 78.66 88 79.32 88 80 C88.66 80 89.32 80 90 80 C90 80.66 90 81.32 90 82 C90.66 82 91.32 82 92 82 C92 82.66 92 83.32 92 84 C92.66 84 93.32 84 94 84 C94 84.66 94 85.32 94 86 C94.99 86 95.98 86 97 86 C97 86.66 97 87.32 97 88 C98.32 88.33 99.64 88.66 101 89 C101 89.99 101 90.98 101 92 C102.32 92 103.64 92 105 92 C107.25 93.875 107.25 93.875 109 96 C109 96.66 109 97.32 109 98 C109.66 98 110.32 98 111 98 C111 98.66 111 99.32 111 100 C111.66 100 112.32 100 113 100 C113 100.66 113 101.32 113 102 C113.66 102 114.32 102 115 102 C115 102.66 115 103.32 115 104 C115.66 104 116.32 104 117 104 C117 104.66 117 105.32 117 106 C117.66 106 118.32 106 119 106 C119 106.66 119 107.32 119 108 C119.66 108 120.32 108 121 108 C121 108.66 121 109.32 121 110 C121.66 110 122.32 110 123 110 C123 110.99 123 111.98 123 113 C123.66 113 124.32 113 125 113 C125 113.66 125 114.32 125 115 C125.66 115 126.32 115 127 115 C127 115.66 127 116.32 127 117 C127.66 117 128.32 117 129 117 C129 118.32 129 119.64 129 121 C129.66 121 130.32 121 131 121 C131 124.3 131 127.6 131 131 C130.34 131 129.68 131 129 131 C129 131.66 129 132.32 129 133 C128.34 133 127.68 133 127 133 C127 133.66 127 134.32 127 135 C125.02 135 123.04 135 121 135 C121 135.66 121 136.32 121 137 C33.88 137 -53.24 137 -143 137 C-143 136.34 -143 135.68 -143 135 C-152.57 135.33 -162.14 135.66 -172 136 C-172 134.68 -172 133.36 -172 132 C-171.34 132 -170.68 132 -170 132 C-170 131.34 -170 130.68 -170 130 C-168.36209288 128.95355934 -166.68991979 127.9601817 -165 127 C-164.278125 126.443125 -163.55625 125.88625 -162.8125 125.3125 C-161 124 -161 124 -159 124 C-159 123.34 -159 122.68 -159 122 C-157.68 122 -156.36 122 -155 122 C-155 121.34 -155 120.68 -155 120 C-154.34 120 -153.68 120 -153 120 C-153 119.34 -153 118.68 -153 118 C-152.34 118 -151.68 118 -151 118 C-151 117.34 -151 116.68 -151 116 C-147.53846154 113 -147.53846154 113 -145 113 C-145 112.34 -145 111.68 -145 111 C-144.21625 110.9175 -143.4325 110.835 -142.625 110.75 C-141.75875 110.5025 -140.8925 110.255 -140 110 C-139.30062468 108.68352881 -138.63270867 107.34977849 -138 106 C-135.875 105.25 -135.875 105.25 -134 105 C-134 104.34 -134 103.68 -134 103 C-128.58823529 99 -128.58823529 99 -126 99 C-126 98.34 -126 97.68 -126 97 C-125.34 97 -124.68 97 -124 97 C-124 96.34 -124 95.68 -124 95 C-121.03 94.01 -121.03 94.01 -118 93 C-118 92.34 -118 91.68 -118 91 C-117.01 91 -116.02 91 -115 91 C-115 90.34 -115 89.68 -115 89 C-114.0409375 88.5978125 -114.0409375 88.5978125 -113.0625 88.1875 C-110.66868314 87.11332248 -110.66868314 87.11332248 -110 84 C-109.01 84 -108.02 84 -107 84 C-107 83.34 -107 82.68 -107 82 C-105.68 81.67 -104.36 81.34 -103 81 C-103 80.34 -103 79.68 -103 79 C-101.68 78.67 -100.36 78.34 -99 78 C-99 77.34 -99 76.68 -99 76 C-98.34 76 -97.68 76 -97 76 C-97 75.34 -97 74.68 -97 74 C-96.34 74 -95.68 74 -95 74 C-95 73.34 -95 72.68 -95 72 C-93.68 72 -92.36 72 -91 72 C-91 71.34 -91 70.68 -91 70 C-90.34 70 -89.68 70 -89 70 C-89 69.34 -89 68.68 -89 68 C-88.34 68 -87.68 68 -87 68 C-87 67.34 -87 66.68 -87 66 C-85.68 66 -84.36 66 -83 66 C-83 65.34 -83 64.68 -83 64 C-82.34 64 -81.68 64 -81 64 C-81 63.34 -81 62.68 -81 62 C-80.34 62 -79.68 62 -79 62 C-79 61.34 -79 60.68 -79 60 C-78.01 60 -77.02 60 -76 60 C-76 59.34 -76 58.68 -76 58 C-74.68 58 -73.36 58 -72 58 C-72 57.34 -72 56.68 -72 56 C-71.34 56 -70.68 56 -70 56 C-70 55.34 -70 54.68 -70 54 C-69.01 54 -68.02 54 -67 54 C-67 53.34 -67 52.68 -67 52 C-64 50 -64 50 -61 50 C-61 49.34 -61 48.68 -61 48 C-60.34 48 -59.68 48 -59 48 C-59 47.01 -59 46.02 -59 45 C-58.34 45 -57.68 45 -57 45 C-57 44.34 -57 43.68 -57 43 C-54 41 -54 41 -51 41 C-51 40.34 -51 39.68 -51 39 C-50.34 39 -49.68 39 -49 39 C-49 38.34 -49 37.68 -49 37 C-47.02 36.34 -45.04 35.68 -43 35 C-43 34.34 -43 33.68 -43 33 C-42.34 33 -41.68 33 -41 33 C-41 32.34 -41 31.68 -41 31 C-39.68 31 -38.36 31 -37 31 C-37 30.01 -37 29.02 -37 28 C-34.03 27.505 -34.03 27.505 -31 27 C-31 26.01 -31 25.02 -31 24 C-30.39671875 23.68546875 -29.7934375 23.3709375 -29.171875 23.046875 C-24.8496809 20.73240977 -21.36094221 18.62981758 -18 15 C-17.34 15 -16.68 15 -16 15 C-16 14.01 -16 13.02 -16 12 C-15.34 12 -14.68 12 -14 12 C-14 11.34 -14 10.68 -14 10 C-13.34 10 -12.68 10 -12 10 C-12 9.34 -12 8.68 -12 8 C-10.68 8 -9.36 8 -8 8 C-8 7.34 -8 6.68 -8 6 C-7.34 6 -6.68 6 -6 6 C-6 5.34 -6 4.68 -6 4 C-4.02 3.34 -2.04 2.68 0 2 C0 1.34 0 0.68 0 0 Z " fill="#1C8E93" transform="translate(270,353)"/>
<path d="M0 0 C1.32 0.33 2.64 0.66 4 1 C3.34 1 2.68 1 2 1 C2 1.66 2 2.32 2 3 C1.34 3 0.68 3 0 3 C0 3.66 0 4.32 0 5 C-1.32 5 -2.64 5 -4 5 C-4 5.66 -4 6.32 -4 7 C-4.66 7 -5.32 7 -6 7 C-6 7.66 -6 8.32 -6 9 C-6.66 9 -7.32 9 -8 9 C-8 9.99 -8 10.98 -8 12 C-11.55392115 16.03759089 -16.06518747 18.93426452 -21 21 C-21.66 21 -22.32 21 -23 21 C-23 20.34 -23 19.68 -23 19 C-22.34 19 -21.68 19 -21 19 C-21 18.34 -21 17.68 -21 17 C-20.34 17 -19.68 17 -19 17 C-19 16.34 -19 15.68 -19 15 C-18.05125 14.7525 -17.1025 14.505 -16.125 14.25 C-12.94147968 13.33760907 -12.94147968 13.33760907 -11.8125 11.0625 C-11.544375 10.381875 -11.27625 9.70125 -11 9 C-9.5625 7.25 -9.5625 7.25 -8 6 C-7.01 6 -6.02 6 -5 6 C-5 5.34 -5 4.68 -5 4 C-3.35 3.34 -1.7 2.68 0 2 C0 1.34 0 0.68 0 0 Z " fill="#14595B" transform="translate(262,356)"/>
<path d="M0 0 C0 0.66 0 1.32 0 2 C-0.66 2 -1.32 2 -2 2 C-2 2.66 -2 3.32 -2 4 C-3.98 4.66 -5.96 5.32 -8 6 C-8 6.66 -8 7.32 -8 8 C-8.66 8 -9.32 8 -10 8 C-10 8.99 -10 9.98 -10 11 C-10.66 11 -11.32 11 -12 11 C-12 11.66 -12 12.32 -12 13 C-13.98 13.66 -15.96 14.32 -18 15 C-18 15.66 -18 16.32 -18 17 C-18.99 17 -19.98 17 -21 17 C-21 17.66 -21 18.32 -21 19 C-21.66 19 -22.32 19 -23 19 C-23 19.66 -23 20.32 -23 21 C-24.32 21 -25.64 21 -27 21 C-27 21.66 -27 22.32 -27 23 C-27.99 22.67 -28.98 22.34 -30 22 C-29.34 22 -28.68 22 -28 22 C-28 21.34 -28 20.68 -28 20 C-26.35 19.34 -24.7 18.68 -23 18 C-23 17.34 -23 16.68 -23 16 C-22.01 16 -21.02 16 -20 16 C-19.74476563 15.40219727 -19.48953125 14.80439453 -19.2265625 14.18847656 C-17.86686431 11.76245456 -16.5940654 10.63651781 -14.375 8.984375 C-13.66859375 8.45585937 -12.9621875 7.92734375 -12.234375 7.3828125 C-11.12835938 6.57457031 -11.12835938 6.57457031 -10 5.75 C-9.26265625 5.19570313 -8.5253125 4.64140625 -7.765625 4.0703125 C-2.27170567 0 -2.27170567 0 0 0 Z " fill="#104143" transform="translate(221,390)"/>
<path d="M0 0 C1.32 0.33 2.64 0.66 4 1 C3.34 1 2.68 1 2 1 C2 1.66 2 2.32 2 3 C1.34 3 0.68 3 0 3 C0 3.66 0 4.32 0 5 C-1.32 5 -2.64 5 -4 5 C-4 5.66 -4 6.32 -4 7 C-4.66 7 -5.32 7 -6 7 C-6 7.66 -6 8.32 -6 9 C-6.66 9 -7.32 9 -8 9 C-8 9.66 -8 10.32 -8 11 C-9.65 11.66 -11.3 12.32 -13 13 C-11.71700242 10.13792848 -10.469364 7.9754912 -8 6 C-7.01 6 -6.02 6 -5 6 C-5 5.34 -5 4.68 -5 4 C-3.35 3.34 -1.7 2.68 0 2 C0 1.34 0 0.68 0 0 Z " fill="#0E383A" transform="translate(262,356)"/>
<path d="M0 0 C1.32 0.33 2.64 0.66 4 1 C2.35 1.66 0.7 2.32 -1 3 C-1 3.66 -1 4.32 -1 5 C-1.99 5 -2.98 5 -4 5 C-4 5.66 -4 6.32 -4 7 C-4.99 7.66 -5.98 8.32 -7 9 C-7.99 8.67 -8.98 8.34 -10 8 C-8.68 7.34 -7.36 6.68 -6 6 C-6 5.34 -6 4.68 -6 4 C-3 2 -3 2 0 2 C0 1.34 0 0.68 0 0 Z " fill="#11484A" transform="translate(156,439)"/>
<path d="M0 0 C0.33 0.66 0.66 1.32 1 2 C0.34 2 -0.32 2 -1 2 C-1 2.66 -1 3.32 -1 4 C-1.66 4 -2.32 4 -3 4 C-3 4.66 -3 5.32 -3 6 C-4.32 6 -5.64 6 -7 6 C-7 6.66 -7 7.32 -7 8 C-8.65 8.66 -10.3 9.32 -12 10 C-11.34 9.01 -10.68 8.02 -10 7 C-9.34 7 -8.68 7 -8 7 C-8 6.34 -8 5.68 -8 5 C-6.25 3.7109375 -6.25 3.7109375 -4 2.375 C-3.2575 1.92898438 -2.515 1.48296875 -1.75 1.0234375 C-0.88375 0.51683594 -0.88375 0.51683594 0 0 Z " fill="#0E3738" transform="translate(118,469)"/>
<path d="M0 0 C0.99 0.33 1.98 0.66 3 1 C1.40629329 2.36646148 -0.20032982 3.71787166 -1.8125 5.0625 C-3.15248047 6.19365234 -3.15248047 6.19365234 -4.51953125 7.34765625 C-5.74736328 8.16556641 -5.74736328 8.16556641 -7 9 C-7.99 8.67 -8.98 8.34 -10 8 C-9.34 8 -8.68 8 -8 8 C-8 7.34 -8 6.68 -8 6 C-7.34 6 -6.68 6 -6 6 C-6 5.34 -6 4.68 -6 4 C-4.02 3.34 -2.04 2.68 0 2 C0 1.34 0 0.68 0 0 Z " fill="#197B7F" transform="translate(152,444)"/>
<path d="M0 0 C0.33 0.66 0.66 1.32 1 2 C0.34 2 -0.32 2 -1 2 C-1 2.66 -1 3.32 -1 4 C-2.96147874 5.38938077 -4.96166576 6.7260411 -7 8 C-7.66 7.67 -8.32 7.34 -9 7 C-7.87720538 6.01830524 -6.75168527 5.03972702 -5.625 4.0625 C-4.68527344 3.24458984 -4.68527344 3.24458984 -3.7265625 2.41015625 C-2 1 -2 1 0 0 Z " fill="#0F3A3B" transform="translate(145,448)"/>
<path d="M0 0 C0.66 0 1.32 0 2 0 C2 0.99 2 1.98 2 3 C1.34 3 0.68 3 0 3 C0 3.66 0 4.32 0 5 C-1.32 5 -2.64 5 -4 5 C-4 5.66 -4 6.32 -4 7 C-4.99 6.67 -5.98 6.34 -7 6 C-6.34 6 -5.68 6 -5 6 C-5 5.34 -5 4.68 -5 4 C-3.35 3.34 -1.7 2.68 0 2 C0 1.34 0 0.68 0 0 Z " fill="#0F3B3D" transform="translate(198,406)"/>
<path d="M0 0 C0.66 0 1.32 0 2 0 C2 0.66 2 1.32 2 2 C3.65 2 5.3 2 7 2 C7 2.33 7 2.66 7 3 C5.35 3 3.7 3 2 3 C2 3.66 2 4.32 2 5 C0.68 5.33 -0.64 5.66 -2 6 C-2 5.34 -2 4.68 -2 4 C-1.34 4 -0.68 4 0 4 C0 2.68 0 1.36 0 0 Z " fill="#103D3E" transform="translate(268,350)"/>
<path d="M0 0 C1.32 0.33 2.64 0.66 4 1 C2.25 3.0625 2.25 3.0625 0 5 C-2.25 4.75 -2.25 4.75 -4 4 C-3.34 4 -2.68 4 -2 4 C-2 3.34 -2 2.68 -2 2 C-1.34 2 -0.68 2 0 2 C0 1.34 0 0.68 0 0 Z " fill="#197A7E" transform="translate(258,361)"/>
<path d="M0 0 C0.66 0 1.32 0 2 0 C1.8125 1.875 1.8125 1.875 1 4 C-1.5625 5.25 -1.5625 5.25 -4 6 C-4 5.34 -4 4.68 -4 4 C-3.34 4 -2.68 4 -2 4 C-2 3.34 -2 2.68 -2 2 C-1.34 2 -0.68 2 0 2 C0 1.34 0 0.68 0 0 Z " fill="#177477" transform="translate(175,425)"/>
</svg>
